<?xml version="1.0" encoding="UTF-8"?>
<svg xmlns="http://www.w3.org/2000/svg" xmlns:xlink="http://www.w3.org/1999/xlink" width="4999.87" height="4999.87" viewBox="0 0 4999.87 4999.87">
<defs>
<clipPath id="clip-0">

</clipPath>
<clipPath id="clip-1">
<path clip-rule="evenodd" d="M 3075.769531 1640.988281 C 3068.640625 1648 3060.769531 1656.628906 3056.671875 1660.730469 L 2760.898438 1956.5 L 3206.710938 1956.5 C 3189.570312 1843.359375 3145.339844 1736.238281 3077.808594 1643.800781 C 3077.269531 1643.050781 3076.519531 1642.078125 3075.769531 1640.988281 Z M 1792.371094 1956.5 L 2238.179688 1956.5 L 1930.761719 1649.089844 C 1928.820312 1647.140625 1926.011719 1644.339844 1923 1641.308594 C 1922.238281 1642.398438 1921.488281 1643.25 1920.949219 1644.128906 C 1853.640625 1736.558594 1809.519531 1843.570312 1792.371094 1956.5 Z M 2076.058594 1488.25 L 2391.238281 1803.441406 L 2391.238281 1378.988281 C 2391.238281 1374.78125 2391.140625 1365.511719 2390.378906 1358.390625 C 2384.230469 1358.808594 2376.789062 1360 2373.128906 1360.660156 C 2265.480469 1379.851562 2163.96875 1423.53125 2076.058594 1488.25 Z M 2608.921875 1358.390625 C 2607.621094 1368.308594 2607.730469 1383.410156 2607.730469 1389.449219 L 2607.730469 1803.441406 L 2907.378906 1503.789062 C 2910.730469 1500.441406 2917.199219 1494.191406 2922.808594 1488.25 C 2919.351562 1485.558594 2915.910156 1483.078125 2913.75 1481.570312 C 2827.570312 1420.191406 2728.980469 1378.769531 2624.671875 1360.441406 C 2621.320312 1359.890625 2614.640625 1358.808594 2608.921875 1358.488281 Z M 2608.921875 1358.390625 "/>
</clipPath>
<linearGradient id="linear-pattern-0" gradientUnits="userSpaceOnUse" x1="0.60992" y1="0" x2="1.039606" y2="0" gradientTransform="matrix(0, -1391.97, 1391.97, 0, 2499.54, 2805.49)">
<stop offset="0" stop-color="rgb(97.389221%, 63.691711%, 11.083984%)" stop-opacity="1"/>
<stop offset="0.015625" stop-color="rgb(97.380066%, 63.581848%, 11.09314%)" stop-opacity="1"/>
<stop offset="0.03125" stop-color="rgb(97.364807%, 63.362122%, 11.11145%)" stop-opacity="1"/>
<stop offset="0.046875" stop-color="rgb(97.349548%, 63.143921%, 11.129761%)" stop-opacity="1"/>
<stop offset="0.0625" stop-color="rgb(97.332764%, 62.92572%, 11.148071%)" stop-opacity="1"/>
<stop offset="0.078125" stop-color="rgb(97.317505%, 62.705994%, 11.166382%)" stop-opacity="1"/>
<stop offset="0.09375" stop-color="rgb(97.302246%, 62.487793%, 11.184692%)" stop-opacity="1"/>
<stop offset="0.109375" stop-color="rgb(97.285461%, 62.269592%, 11.204529%)" stop-opacity="1"/>
<stop offset="0.125" stop-color="rgb(97.270203%, 62.049866%, 11.222839%)" stop-opacity="1"/>
<stop offset="0.140625" stop-color="rgb(97.253418%, 61.831665%, 11.24115%)" stop-opacity="1"/>
<stop offset="0.15625" stop-color="rgb(97.238159%, 61.613464%, 11.25946%)" stop-opacity="1"/>
<stop offset="0.171875" stop-color="rgb(97.2229%, 61.393738%, 11.277771%)" stop-opacity="1"/>
<stop offset="0.1875" stop-color="rgb(97.206116%, 61.175537%, 11.296082%)" stop-opacity="1"/>
<stop offset="0.203125" stop-color="rgb(97.190857%, 60.957336%, 11.314392%)" stop-opacity="1"/>
<stop offset="0.21875" stop-color="rgb(97.175598%, 60.73761%, 11.332703%)" stop-opacity="1"/>
<stop offset="0.234375" stop-color="rgb(97.158813%, 60.519409%, 11.351013%)" stop-opacity="1"/>
<stop offset="0.25" stop-color="rgb(97.143555%, 60.301208%, 11.369324%)" stop-opacity="1"/>
<stop offset="0.265625" stop-color="rgb(97.128296%, 60.081482%, 11.387634%)" stop-opacity="1"/>
<stop offset="0.28125" stop-color="rgb(97.111511%, 59.863281%, 11.407471%)" stop-opacity="1"/>
<stop offset="0.296875" stop-color="rgb(97.096252%, 59.643555%, 11.425781%)" stop-opacity="1"/>
<stop offset="0.3125" stop-color="rgb(97.079468%, 59.425354%, 11.444092%)" stop-opacity="1"/>
<stop offset="0.328125" stop-color="rgb(97.064209%, 59.207153%, 11.462402%)" stop-opacity="1"/>
<stop offset="0.34375" stop-color="rgb(97.04895%, 58.987427%, 11.480713%)" stop-opacity="1"/>
<stop offset="0.359375" stop-color="rgb(97.032166%, 58.769226%, 11.499023%)" stop-opacity="1"/>
<stop offset="0.375" stop-color="rgb(97.016907%, 58.551025%, 11.517334%)" stop-opacity="1"/>
<stop offset="0.390625" stop-color="rgb(97.001648%, 58.331299%, 11.535645%)" stop-opacity="1"/>
<stop offset="0.40625" stop-color="rgb(96.984863%, 58.113098%, 11.553955%)" stop-opacity="1"/>
<stop offset="0.421875" stop-color="rgb(96.969604%, 57.893372%, 11.572266%)" stop-opacity="1"/>
<stop offset="0.4375" stop-color="rgb(96.954346%, 57.675171%, 11.590576%)" stop-opacity="1"/>
<stop offset="0.453125" stop-color="rgb(96.937561%, 57.45697%, 11.610413%)" stop-opacity="1"/>
<stop offset="0.46875" stop-color="rgb(96.922302%, 57.237244%, 11.628723%)" stop-opacity="1"/>
<stop offset="0.484375" stop-color="rgb(96.905518%, 57.019043%, 11.647034%)" stop-opacity="1"/>
<stop offset="0.5" stop-color="rgb(96.890259%, 56.800842%, 11.665344%)" stop-opacity="1"/>
<stop offset="0.515625" stop-color="rgb(96.875%, 56.581116%, 11.683655%)" stop-opacity="1"/>
<stop offset="0.53125" stop-color="rgb(96.858215%, 56.362915%, 11.701965%)" stop-opacity="1"/>
<stop offset="0.546875" stop-color="rgb(96.842957%, 56.143188%, 11.720276%)" stop-opacity="1"/>
<stop offset="0.5625" stop-color="rgb(96.827698%, 55.924988%, 11.738586%)" stop-opacity="1"/>
<stop offset="0.578125" stop-color="rgb(96.810913%, 55.706787%, 11.756897%)" stop-opacity="1"/>
<stop offset="0.59375" stop-color="rgb(96.795654%, 55.487061%, 11.775208%)" stop-opacity="1"/>
<stop offset="0.609375" stop-color="rgb(96.77887%, 55.26886%, 11.795044%)" stop-opacity="1"/>
<stop offset="0.625" stop-color="rgb(96.763611%, 55.049133%, 11.813354%)" stop-opacity="1"/>
<stop offset="0.640625" stop-color="rgb(96.748352%, 54.830933%, 11.831665%)" stop-opacity="1"/>
<stop offset="0.65625" stop-color="rgb(96.731567%, 54.612732%, 11.849976%)" stop-opacity="1"/>
<stop offset="0.671875" stop-color="rgb(96.716309%, 54.393005%, 11.868286%)" stop-opacity="1"/>
<stop offset="0.6875" stop-color="rgb(96.70105%, 54.174805%, 11.886597%)" stop-opacity="1"/>
<stop offset="0.703125" stop-color="rgb(96.684265%, 53.955078%, 11.904907%)" stop-opacity="1"/>
<stop offset="0.71875" stop-color="rgb(96.669006%, 53.736877%, 11.923218%)" stop-opacity="1"/>
<stop offset="0.734375" stop-color="rgb(96.653748%, 53.518677%, 11.941528%)" stop-opacity="1"/>
<stop offset="0.75" stop-color="rgb(96.636963%, 53.29895%, 11.959839%)" stop-opacity="1"/>
<stop offset="0.765625" stop-color="rgb(96.621704%, 53.08075%, 11.978149%)" stop-opacity="1"/>
<stop offset="0.78125" stop-color="rgb(96.604919%, 52.861023%, 11.997986%)" stop-opacity="1"/>
<stop offset="0.796875" stop-color="rgb(96.589661%, 52.642822%, 12.016296%)" stop-opacity="1"/>
<stop offset="0.8125" stop-color="rgb(96.574402%, 52.423096%, 12.034607%)" stop-opacity="1"/>
<stop offset="0.828125" stop-color="rgb(96.557617%, 52.204895%, 12.052917%)" stop-opacity="1"/>
<stop offset="0.84375" stop-color="rgb(96.542358%, 51.986694%, 12.071228%)" stop-opacity="1"/>
<stop offset="0.859375" stop-color="rgb(96.5271%, 51.766968%, 12.089539%)" stop-opacity="1"/>
<stop offset="0.875" stop-color="rgb(96.510315%, 51.548767%, 12.107849%)" stop-opacity="1"/>
<stop offset="0.890625" stop-color="rgb(96.495056%, 51.329041%, 12.12616%)" stop-opacity="1"/>
<stop offset="0.90625" stop-color="rgb(96.479797%, 51.11084%, 12.14447%)" stop-opacity="1"/>
<stop offset="0.9375" stop-color="rgb(96.470642%, 50.990295%, 12.155151%)" stop-opacity="1"/>
<stop offset="1" stop-color="rgb(96.469116%, 50.979614%, 12.156677%)" stop-opacity="1"/>
</linearGradient>
</defs>
<path fill-rule="evenodd" fill="rgb(100%, 100%, 100%)" fill-opacity="1" d="M 0 0 L 4999.871094 0 L 4999.871094 4999.871094 L 0 4999.871094 L 0 0 "/>
<path fill-rule="nonzero" fill="rgb(1.567078%, 66.601562%, 2.745056%)" fill-opacity="1" d="M 2473.011719 1256.230469 C 2458.121094 1088.070312 2349.390625 1024 2214.558594 1004.789062 C 2214.558594 1004.789062 2160.960938 1230.890625 2473.011719 1256.230469 Z M 2508.820312 1256.558594 C 2496.410156 998.320312 2647.980469 878.480469 2848.699219 821.210938 C 2848.699219 821.210938 2977.070312 1153.011719 2508.820312 1256.558594 "/>
<path fill-rule="nonzero" fill="rgb(96.484375%, 50.976562%, 12.156677%)" fill-opacity="1" d="M 3255.800781 1959.300781 C 3238.210938 1831.921875 3189.140625 1714.449219 3116.761719 1615.210938 C 3077.808594 1561.929688 3061.75 1587.171875 3022.371094 1626.539062 L 2691.109375 1957.789062 C 2648.179688 2000.730469 2651.859375 2004.71875 2713.109375 2004.71875 L 3212.550781 2004.71875 C 3253.75 2004.71875 3261.738281 2002.238281 3255.800781 1959.300781 Z M 1881.789062 1615.539062 C 1809.851562 1714.238281 1760.980469 1830.949219 1743.289062 1957.480469 C 1739.300781 1986.171875 1732.71875 2004.71875 1767.449219 2004.71875 L 2305.28125 2004.71875 C 2345.730469 2004.71875 2343.679688 1993.609375 2318.761719 1968.589844 L 1964.960938 1614.78125 C 1928.609375 1578.429688 1914.800781 1570.449219 1881.898438 1615.539062 Z M 2364.609375 1312.980469 C 2243.578125 1334.550781 2132.480469 1384.601562 2038.410156 1456 C 2011.878906 1476.171875 2012.640625 1493.109375 2035.828125 1516.300781 L 2405.480469 1885.949219 C 2415.839844 1896.320312 2423.289062 1901.601562 2428.460938 1902.140625 L 2428.679688 1902.140625 L 2429.871094 1901.601562 L 2430.71875 1901.601562 L 2430.941406 1901.5 L 2431.050781 1901.5 L 2431.261719 1901.378906 L 2431.480469 1901.378906 L 2431.808594 1901.28125 L 2432.671875 1901.28125 L 2434.390625 1900.519531 L 2435.03125 1900.519531 C 2438.699219 1895.78125 2439.890625 1885.089844 2439.890625 1868.910156 L 2439.890625 1379.960938 C 2439.890625 1320.628906 2425.96875 1303.148438 2365.03125 1314.050781 Z M 2941.691406 1442.089844 C 2851.398438 1377.800781 2746.550781 1332.71875 2632.96875 1312.761719 C 2564.921875 1300.789062 2559.421875 1329.050781 2559.421875 1389.449219 L 2559.421875 1861.800781 C 2559.421875 1881.761719 2560.710938 1893.730469 2564.050781 1899.011719 L 2565.980469 1899.011719 L 2567.390625 1899.550781 L 2568.140625 1899.550781 L 2568.359375 1899.648438 L 2568.46875 1899.648438 L 2568.789062 1899.769531 L 2568.910156 1899.769531 L 2569.109375 1899.871094 L 2569.859375 1899.871094 L 2570.828125 1900.300781 L 2571.058594 1900.300781 C 2577.53125 1898.898438 2587.140625 1890.28125 2601.148438 1876.359375 L 2941.359375 1536.140625 C 2984.078125 1493.429688 2995.71875 1478.988281 2941.46875 1440.359375 L 2941.691406 1442.089844 "/>
<g clip-path="url(#clip-0)">
<g clip-path="url(#clip-1)">
<path fill-rule="nonzero" fill="url(#linear-pattern-0)" d="M 1792.371094 1956.5 L 3206.710938 1956.5 L 3206.710938 1358.390625 L 1792.371094 1358.390625 Z M 1792.371094 1956.5 "/>
</g>
</g>
<path fill-rule="nonzero" fill="rgb(1.567078%, 66.601562%, 2.745056%)" fill-opacity="1" d="M 2403.871094 2889.761719 C 2414.121094 2889.761719 2422.300781 2898.070312 2422.300781 2908.210938 C 2422.300781 2918.460938 2414 2926.660156 2403.871094 2926.660156 C 2393.621094 2926.660156 2385.421875 2918.339844 2385.421875 2908.210938 C 2385.421875 2897.960938 2393.730469 2889.761719 2403.871094 2889.761719 Z M 2592.738281 2881.25 C 2602.980469 2881.25 2611.179688 2889.550781 2611.179688 2899.691406 C 2611.179688 2909.941406 2602.878906 2918.140625 2592.738281 2918.140625 C 2582.488281 2918.140625 2574.289062 2909.820312 2574.289062 2899.691406 C 2574.289062 2889.441406 2582.601562 2881.25 2592.738281 2881.25 Z M 2601.261719 2970.78125 C 2609.140625 2970.78125 2615.488281 2977.140625 2615.488281 2985.011719 C 2615.488281 2992.890625 2609.140625 2999.238281 2601.261719 2999.238281 C 2593.390625 2999.238281 2587.03125 2992.890625 2587.03125 2985.011719 C 2587.03125 2977.140625 2593.390625 2970.78125 2601.261719 2970.78125 Z M 3281.578125 2108.160156 C 3229.589844 2506.078125 2954.640625 2733.03125 2648.839844 2788.148438 C 2644.511719 2813.511719 2647.75 2850.179688 2647.75 2863.558594 C 2647.75 2871.101562 2641.601562 2877.359375 2633.949219 2877.359375 C 2626.390625 2877.359375 2620.140625 2871.101562 2620.140625 2863.558594 L 2620.140625 2792.800781 C 2611.511719 2793.988281 2602.980469 2795.160156 2594.359375 2796.140625 L 2594.359375 2843.058594 C 2594.359375 2855.691406 2575.261719 2855.691406 2575.261719 2843.058594 C 2575.261719 2841.019531 2575.488281 2830.210938 2574.949219 2823.859375 C 2573.648438 2811.03125 2559.621094 2817.070312 2558.441406 2829.578125 C 2552.5 2892.679688 2556.820312 2983.609375 2556.820312 3046.808594 C 2556.820312 3074.21875 2515.511719 3074.21875 2515.511719 3046.808594 L 2515.511719 2962.570312 C 2515.511719 2953.851562 2516.039062 2885.121094 2514.539062 2878.980469 C 2510.550781 2862.578125 2482.828125 2856.109375 2482.828125 2880.058594 L 2482.828125 2951.359375 C 2482.828125 2974.550781 2447.878906 2974.550781 2447.878906 2951.359375 C 2447.878906 2933.128906 2449.601562 2902.808594 2447.980469 2885.339844 C 2446.148438 2866.46875 2445.070312 2826.121094 2434.390625 2798.839844 C 2428.558594 2798.398438 2422.851562 2797.859375 2417.019531 2797.21875 L 2417.019531 2842.960938 C 2417.019531 2860.539062 2390.378906 2860.539062 2390.378906 2842.960938 C 2390.378906 2840.148438 2390.710938 2824.941406 2389.851562 2816.199219 C 2388.011719 2798.300781 2368.480469 2806.808594 2366.761719 2824.179688 C 2358.460938 2912.300781 2364.390625 3039.050781 2364.390625 3127.398438 C 2364.390625 3165.570312 2306.671875 3165.570312 2306.671875 3127.398438 L 2306.671875 3009.828125 C 2306.671875 2997.628906 2307.320312 2839.171875 2305.28125 2830.648438 C 2299.660156 2807.671875 2261.050781 2798.71875 2261.050781 2832.160156 L 2261.050781 2994.179688 C 2261.050781 3026.421875 2212.191406 3026.421875 2212.191406 2994.179688 C 2212.191406 2968.71875 2214.671875 2926.441406 2212.289062 2902.058594 C 2210.359375 2881.878906 2213.589844 2796.238281 2207.761719 2748.238281 C 1963.21875 2655.46875 1762.160156 2441.148438 1718.050781 2104.390625 L 1718.371094 2104.390625 L 1719.238281 2109.25 C 1786.328125 2486.128906 2115.320312 2761.410156 2498.671875 2761.410156 C 2881.941406 2761.410156 3211.03125 2486.128906 3278.121094 2109.25 L 3278.339844 2108.058594 L 3281.46875 2108.058594 L 3281.578125 2108.160156 "/>
<path fill-rule="nonzero" fill="rgb(68.943787%, 0%, 3.921509%)" fill-opacity="1" d="M 1746.53125 2104.5 L 2334.289062 2104.5 C 2334.609375 2105.570312 2334.941406 2106.648438 2335.261719 2107.738281 L 2335.371094 2108.058594 L 2336.238281 2110.96875 L 2336.449219 2111.730469 C 2338.601562 2118.199219 2341.089844 2124.558594 2343.898438 2130.601562 L 2344.109375 2131.03125 C 2346.480469 2136.101562 2349.070312 2141.058594 2351.871094 2145.808594 L 2352.089844 2146.238281 C 2352.628906 2147.101562 2353.171875 2147.96875 2353.710938 2148.828125 L 2353.929688 2149.160156 C 2354.46875 2150.019531 2355 2150.890625 2355.640625 2151.839844 L 2355.761719 2152.058594 C 2357.589844 2154.859375 2359.53125 2157.679688 2361.480469 2160.378906 L 2361.480469 2160.480469 C 2362.121094 2161.351562 2362.769531 2162.101562 2363.308594 2162.960938 L 2363.640625 2163.398438 C 2364.28125 2164.148438 2364.808594 2165.011719 2365.46875 2165.761719 L 2365.789062 2166.199219 C 2366.441406 2166.949219 2367.078125 2167.808594 2367.730469 2168.558594 C 2369.78125 2170.941406 2371.828125 2173.308594 2373.878906 2175.578125 L 2374.738281 2176.441406 L 2376.351562 2178.171875 L 2377.21875 2179.03125 L 2378.949219 2180.761719 L 2379.921875 2181.730469 L 2381.640625 2183.339844 L 2382.511719 2184.109375 C 2384.671875 2186.039062 2386.828125 2187.988281 2388.980469 2189.929688 L 2389.628906 2190.460938 L 2391.570312 2192.078125 L 2392.539062 2192.839844 L 2394.480469 2194.351562 L 2395.339844 2194.988281 L 2397.398438 2196.5 L 2398.46875 2197.261719 L 2400.410156 2198.671875 C 2401.390625 2199.320312 2402.25 2199.960938 2403.21875 2200.609375 L 2403.328125 2200.609375 L 2405.160156 2201.789062 L 2406.449219 2202.660156 L 2408.289062 2203.851562 L 2409.910156 2204.820312 L 2411.519531 2205.78125 L 2413.039062 2206.75 L 2414.761719 2207.71875 L 2416.480469 2208.691406 L 2417.988281 2209.550781 C 2418.96875 2210.101562 2420.050781 2210.640625 2421.011719 2211.179688 L 2421.128906 2211.179688 L 2422.738281 2212.039062 L 2424.679688 2213 L 2426.089844 2213.660156 L 2428.019531 2214.628906 L 2429.75 2215.378906 L 2431.589844 2216.140625 L 2433.199219 2216.789062 L 2436 2217.871094 L 2436.660156 2218.191406 L 2436.761719 2218.191406 C 2437.949219 2218.621094 2439.140625 2219.160156 2440.429688 2219.589844 L 2441.300781 2219.921875 C 2442.160156 2220.230469 2443.128906 2220.570312 2443.988281 2220.878906 L 2445.390625 2221.421875 L 2447.660156 2222.179688 L 2449.171875 2222.609375 L 2451.648438 2223.371094 L 2452.941406 2223.800781 C 2454.230469 2224.121094 2455.421875 2224.441406 2456.71875 2224.769531 L 2456.828125 2224.769531 C 2458.121094 2225.089844 2459.308594 2225.410156 2460.601562 2225.628906 L 2461.898438 2225.949219 L 2464.480469 2226.488281 L 2466 2226.820312 L 2468.371094 2227.25 L 2469.988281 2227.570312 L 2472.679688 2228 L 2473.769531 2228.21875 C 2475.058594 2228.429688 2476.460938 2228.648438 2477.761719 2228.75 C 2479.050781 2228.871094 2480.339844 2229.078125 2481.640625 2229.191406 L 2483.261719 2229.289062 C 2484.121094 2229.410156 2484.988281 2229.519531 2485.960938 2229.519531 L 2487.25 2229.621094 L 2489.828125 2229.839844 L 2491.558594 2229.941406 L 2494.039062 2230.058594 L 2495.550781 2230.058594 C 2496.851562 2230.058594 2498.25 2230.058594 2499.660156 2230.058594 C 2501.058594 2230.058594 2502.351562 2230.058594 2503.75 2230.058594 L 2505.261719 2230.058594 L 2507.851562 2229.941406 L 2509.570312 2229.839844 L 2512.171875 2229.621094 L 2513.460938 2229.519531 L 2516.160156 2229.289062 L 2517.769531 2229.191406 C 2519.070312 2229.078125 2520.359375 2228.871094 2521.660156 2228.75 C 2522.960938 2228.539062 2524.351562 2228.429688 2525.648438 2228.21875 L 2526.730469 2228 L 2529.429688 2227.570312 L 2531.039062 2227.25 L 2533.410156 2226.820312 L 2534.929688 2226.488281 L 2537.511719 2225.949219 L 2538.800781 2225.628906 C 2540.101562 2225.308594 2541.28125 2225.089844 2542.578125 2224.769531 L 2542.691406 2224.769531 C 2543.980469 2224.441406 2545.171875 2224.121094 2546.460938 2223.800781 L 2547.761719 2223.371094 L 2550.238281 2222.609375 L 2551.75 2222.179688 L 2554.019531 2221.421875 L 2555.421875 2220.878906 L 2558.121094 2219.921875 L 2558.980469 2219.589844 C 2560.171875 2219.160156 2561.460938 2218.71875 2562.648438 2218.191406 L 2562.75 2218.191406 L 2563.398438 2217.871094 C 2564.371094 2217.539062 2565.230469 2217.109375 2566.210938 2216.789062 L 2567.820312 2216.140625 L 2569.660156 2215.378906 L 2571.390625 2214.628906 L 2573.320312 2213.660156 L 2574.71875 2213 L 2576.671875 2212.039062 L 2578.28125 2211.179688 L 2578.398438 2211.179688 C 2579.371094 2210.640625 2580.441406 2210.101562 2581.421875 2209.550781 L 2582.921875 2208.691406 L 2584.648438 2207.71875 L 2586.359375 2206.75 L 2587.890625 2205.78125 L 2589.5 2204.820312 L 2591.128906 2203.851562 L 2592.949219 2202.660156 L 2594.238281 2201.789062 L 2596.089844 2200.609375 L 2596.191406 2200.609375 C 2597.171875 2199.960938 2598.128906 2199.320312 2598.988281 2198.671875 L 2600.941406 2197.261719 L 2602.011719 2196.5 L 2603.851562 2195.109375 L 2605.03125 2194.238281 L 2606.871094 2192.839844 L 2607.839844 2192.078125 L 2609.789062 2190.460938 L 2610.429688 2189.929688 C 2612.699219 2188.101562 2614.859375 2186.148438 2616.898438 2184.109375 L 2617.761719 2183.339844 L 2619.5 2181.730469 L 2620.460938 2180.761719 L 2623.050781 2178.171875 L 2624.660156 2176.441406 L 2625.519531 2175.578125 C 2627.679688 2173.308594 2629.738281 2170.941406 2631.679688 2168.558594 C 2632.328125 2167.808594 2632.96875 2166.949219 2633.628906 2166.199219 L 2633.949219 2165.761719 L 2635.789062 2163.398438 L 2636.101562 2162.960938 C 2636.75 2162.101562 2637.398438 2161.351562 2637.941406 2160.480469 L 2637.941406 2160.378906 C 2639.878906 2157.679688 2641.820312 2154.859375 2643.648438 2152.058594 L 2643.761719 2151.839844 C 2644.300781 2150.988281 2644.839844 2150.121094 2645.480469 2149.160156 L 2645.699219 2148.828125 C 2646.238281 2147.96875 2646.78125 2147.101562 2647.320312 2146.238281 L 2647.539062 2145.808594 C 2650.339844 2141.058594 2652.929688 2136.101562 2655.308594 2131.03125 L 2655.519531 2130.601562 C 2658.328125 2124.449219 2660.808594 2118.199219 2662.96875 2111.730469 L 2663.171875 2110.96875 L 2664.050781 2108.058594 L 2664.140625 2107.738281 C 2664.480469 2106.648438 2664.800781 2105.570312 2665.121094 2104.5 L 3250.71875 2104.5 C 3187.078125 2462.289062 2874.488281 2733.890625 2498.46875 2733.890625 C 2122.449219 2733.890625 1809.851562 2462.289062 1746.199219 2104.5 L 1746.53125 2104.5 "/>
<path fill-rule="nonzero" fill="rgb(72.068787%, 10.205078%, 13.719177%)" fill-opacity="1" d="M 1806.71875 2104.5 L 2334.289062 2104.5 C 2334.609375 2105.570312 2334.941406 2106.648438 2335.261719 2107.738281 L 2335.371094 2108.058594 L 2336.238281 2110.96875 L 2336.449219 2111.730469 C 2338.601562 2118.199219 2341.089844 2124.558594 2343.898438 2130.601562 L 2344.109375 2131.03125 C 2346.480469 2136.101562 2349.070312 2141.058594 2351.871094 2145.808594 L 2352.089844 2146.238281 C 2352.628906 2147.101562 2353.171875 2147.96875 2353.710938 2148.828125 L 2353.929688 2149.160156 C 2354.46875 2150.019531 2355 2150.890625 2355.640625 2151.839844 L 2355.761719 2152.058594 C 2357.589844 2154.859375 2359.53125 2157.679688 2361.480469 2160.378906 L 2361.480469 2160.480469 C 2362.121094 2161.351562 2362.769531 2162.101562 2363.308594 2162.960938 L 2363.640625 2163.398438 C 2364.28125 2164.148438 2364.808594 2165.011719 2365.46875 2165.761719 L 2365.789062 2166.199219 C 2366.441406 2166.949219 2367.078125 2167.808594 2367.730469 2168.558594 C 2369.78125 2170.941406 2371.828125 2173.308594 2373.878906 2175.578125 L 2374.738281 2176.441406 L 2376.351562 2178.171875 L 2377.21875 2179.03125 L 2378.949219 2180.761719 L 2379.921875 2181.730469 L 2381.640625 2183.339844 L 2382.511719 2184.109375 C 2384.671875 2186.039062 2386.828125 2187.988281 2388.980469 2189.929688 L 2389.628906 2190.460938 L 2391.570312 2192.078125 L 2392.539062 2192.839844 L 2394.480469 2194.351562 L 2395.339844 2194.988281 L 2397.398438 2196.5 L 2398.46875 2197.261719 L 2400.410156 2198.671875 C 2401.390625 2199.320312 2402.25 2199.960938 2403.21875 2200.609375 L 2403.328125 2200.609375 L 2405.160156 2201.789062 L 2406.449219 2202.660156 L 2408.289062 2203.851562 L 2409.910156 2204.820312 L 2411.519531 2205.78125 L 2413.039062 2206.75 L 2414.761719 2207.71875 L 2416.480469 2208.691406 L 2417.988281 2209.550781 C 2418.96875 2210.101562 2420.050781 2210.640625 2421.011719 2211.179688 L 2421.128906 2211.179688 L 2422.738281 2212.039062 L 2424.679688 2213 L 2426.089844 2213.660156 L 2428.019531 2214.628906 L 2429.75 2215.378906 L 2431.589844 2216.140625 L 2433.199219 2216.789062 L 2436 2217.871094 L 2436.660156 2218.191406 L 2436.761719 2218.191406 C 2437.949219 2218.621094 2439.140625 2219.160156 2440.429688 2219.589844 L 2441.300781 2219.921875 C 2442.160156 2220.230469 2443.128906 2220.570312 2443.988281 2220.878906 L 2445.390625 2221.421875 L 2447.660156 2222.179688 L 2449.171875 2222.609375 L 2451.648438 2223.371094 L 2452.941406 2223.800781 C 2454.230469 2224.121094 2455.421875 2224.441406 2456.71875 2224.769531 L 2456.828125 2224.769531 C 2458.121094 2225.089844 2459.308594 2225.410156 2460.601562 2225.628906 L 2461.898438 2225.949219 L 2464.480469 2226.488281 L 2466 2226.820312 L 2468.371094 2227.25 L 2469.988281 2227.570312 L 2472.679688 2228 L 2473.769531 2228.21875 C 2475.058594 2228.429688 2476.460938 2228.648438 2477.761719 2228.75 C 2479.050781 2228.871094 2480.339844 2229.078125 2481.640625 2229.191406 L 2483.261719 2229.289062 C 2484.121094 2229.410156 2484.988281 2229.519531 2485.960938 2229.519531 L 2487.25 2229.621094 L 2489.828125 2229.839844 L 2491.558594 2229.941406 L 2494.039062 2230.058594 L 2495.550781 2230.058594 C 2496.851562 2230.058594 2498.25 2230.058594 2499.660156 2230.058594 C 2501.058594 2230.058594 2502.351562 2230.058594 2503.75 2230.058594 L 2505.261719 2230.058594 L 2507.851562 2229.941406 L 2509.570312 2229.839844 L 2512.171875 2229.621094 L 2513.460938 2229.519531 L 2516.160156 2229.289062 L 2517.769531 2229.191406 C 2519.070312 2229.078125 2520.359375 2228.871094 2521.660156 2228.75 C 2522.960938 2228.539062 2524.351562 2228.429688 2525.648438 2228.21875 L 2526.730469 2228 L 2529.429688 2227.570312 L 2531.039062 2227.25 L 2533.410156 2226.820312 L 2534.929688 2226.488281 L 2537.511719 2225.949219 L 2538.800781 2225.628906 C 2540.101562 2225.308594 2541.28125 2225.089844 2542.578125 2224.769531 L 2542.691406 2224.769531 C 2543.980469 2224.441406 2545.171875 2224.121094 2546.460938 2223.800781 L 2547.761719 2223.371094 L 2550.238281 2222.609375 L 2551.75 2222.179688 L 2554.019531 2221.421875 L 2555.421875 2220.878906 L 2558.121094 2219.921875 L 2558.980469 2219.589844 C 2560.171875 2219.160156 2561.460938 2218.71875 2562.648438 2218.191406 L 2562.75 2218.191406 L 2563.398438 2217.871094 C 2564.371094 2217.539062 2565.230469 2217.109375 2566.210938 2216.789062 L 2567.820312 2216.140625 L 2569.660156 2215.378906 L 2571.390625 2214.628906 L 2573.320312 2213.660156 L 2574.71875 2213 L 2576.671875 2212.039062 L 2578.28125 2211.179688 L 2578.398438 2211.179688 C 2579.371094 2210.640625 2580.441406 2210.101562 2581.421875 2209.550781 L 2582.921875 2208.691406 L 2584.648438 2207.71875 L 2586.359375 2206.75 L 2587.890625 2205.78125 L 2589.5 2204.820312 L 2591.128906 2203.851562 L 2592.949219 2202.660156 L 2594.238281 2201.789062 L 2596.089844 2200.609375 L 2596.191406 2200.609375 C 2597.171875 2199.960938 2598.128906 2199.320312 2598.988281 2198.671875 L 2600.941406 2197.261719 L 2602.011719 2196.5 L 2603.851562 2195.109375 L 2605.03125 2194.238281 L 2606.871094 2192.839844 L 2607.839844 2192.078125 L 2609.789062 2190.460938 L 2610.429688 2189.929688 C 2612.699219 2188.101562 2614.859375 2186.148438 2616.898438 2184.109375 L 2617.761719 2183.339844 L 2619.5 2181.730469 L 2620.460938 2180.761719 L 2623.050781 2178.171875 L 2624.660156 2176.441406 L 2625.519531 2175.578125 C 2627.679688 2173.308594 2629.738281 2170.941406 2631.679688 2168.558594 C 2632.328125 2167.808594 2632.96875 2166.949219 2633.628906 2166.199219 L 2633.949219 2165.761719 L 2635.789062 2163.398438 L 2636.101562 2162.960938 C 2636.75 2162.101562 2637.398438 2161.351562 2637.941406 2160.480469 L 2637.941406 2160.378906 C 2639.878906 2157.679688 2641.820312 2154.859375 2643.648438 2152.058594 L 2643.761719 2151.839844 C 2644.300781 2150.988281 2644.839844 2150.121094 2645.480469 2149.160156 L 2645.699219 2148.828125 C 2646.238281 2147.96875 2646.78125 2147.101562 2647.320312 2146.238281 L 2647.539062 2145.808594 C 2650.339844 2141.058594 2652.929688 2136.101562 2655.308594 2131.03125 L 2655.519531 2130.601562 C 2658.328125 2124.449219 2660.808594 2118.199219 2662.96875 2111.730469 L 2663.171875 2110.96875 L 2664.050781 2108.058594 L 2664.140625 2107.738281 C 2664.480469 2106.648438 2664.800781 2105.570312 2665.121094 2104.5 L 3190.640625 2104.5 C 3112.660156 2435.980469 2832.320312 2681.359375 2498.46875 2681.359375 C 2164.621094 2681.359375 1884.378906 2435.980469 1806.289062 2104.5 L 1806.71875 2104.5 "/>
<path fill-rule="nonzero" fill="rgb(0%, 0%, 0%)" fill-opacity="1" d="M 2525.441406 2527.980469 C 2527.269531 2499.941406 2515.949219 2464.761719 2499.761719 2445.359375 C 2484.339844 2463.898438 2473.441406 2496.589844 2473.96875 2523.871094 C 2475.058594 2579.429688 2521.871094 2581.800781 2525.441406 2527.980469 "/>
<path fill-rule="nonzero" fill="rgb(0%, 0%, 0%)" fill-opacity="1" d="M 2252.421875 2468.550781 C 2268.058594 2445.140625 2275.828125 2409.109375 2271.519531 2384.199219 C 2248.96875 2392.5 2223.078125 2415.371094 2209.921875 2439.320312 C 2183.058594 2487.96875 2222.539062 2513.421875 2252.421875 2468.550781 "/>
<path fill-rule="nonzero" fill="rgb(0%, 0%, 0%)" fill-opacity="1" d="M 2045.738281 2280.539062 C 2071 2268.128906 2095.800781 2240.730469 2104.539062 2217.011719 C 2080.808594 2212.898438 2047.039062 2219.808594 2023.640625 2233.929688 C 1976.070312 2262.628906 1997.539062 2304.371094 2045.738281 2280.539062 "/>
<path fill-rule="nonzero" fill="rgb(0%, 0%, 0%)" fill-opacity="1" d="M 2953.988281 2280.539062 C 2928.75 2268.03125 2903.941406 2240.730469 2895.199219 2217.011719 C 2918.929688 2212.898438 2952.691406 2219.808594 2976.109375 2233.929688 C 3023.671875 2262.628906 3002.199219 2304.371094 2953.988281 2280.539062 "/>
<path fill-rule="nonzero" fill="rgb(0%, 0%, 0%)" fill-opacity="1" d="M 2747.308594 2468.550781 C 2731.679688 2445.140625 2723.921875 2409.109375 2728.109375 2384.199219 C 2750.660156 2392.5 2776.539062 2415.371094 2789.699219 2439.320312 C 2816.570312 2487.96875 2777.089844 2513.421875 2747.210938 2468.550781 L 2747.308594 2468.550781 "/>
<path fill-rule="nonzero" fill="rgb(0%, 0%, 0%)" fill-opacity="1" d="M 3913.140625 3368.371094 C 3949.378906 3368.371094 3967.5 3372.578125 3967.5 3381.089844 C 3967.5 3390.808594 3959.289062 3395.980469 3943.011719 3396.738281 C 3923.371094 3398.03125 3904.941406 3403.53125 3887.898438 3413.570312 C 3870.851562 3423.5 3855.859375 3437.179688 3842.488281 3454.449219 C 3829.21875 3471.710938 3818.859375 3491.128906 3811.410156 3512.910156 C 3804.078125 3534.601562 3800.308594 3557.460938 3800.308594 3581.519531 C 3800.308594 3608.039062 3806.558594 3629.398438 3818.980469 3645.578125 C 3831.371094 3661.769531 3847.550781 3669.859375 3867.511719 3669.859375 C 3886.058594 3669.859375 3902.238281 3660.359375 3916.160156 3641.378906 C 3929.960938 3622.390625 3936.871094 3600.171875 3936.871094 3574.828125 C 3936.871094 3554 3932.550781 3534.691406 3923.921875 3516.460938 C 3915.289062 3498.339844 3902.78125 3483.03125 3886.28125 3470.621094 C 3879.160156 3465.019531 3875.710938 3461.019531 3875.710938 3458.550781 C 3875.710938 3455.210938 3880.679688 3449.808594 3890.601562 3442.910156 C 3901.808594 3435.351562 3914.210938 3428.988281 3928.128906 3423.921875 C 3941.929688 3418.851562 3953.589844 3416.25 3963.078125 3416.25 C 3973.96875 3416.25 3984.328125 3419.171875 3994.140625 3424.878906 C 4003.960938 3430.601562 4012.699219 3438.800781 4020.25 3449.371094 C 4027.699219 3459.949219 4033.410156 3472.148438 4037.511719 3485.949219 C 4040.769531 3497.128906 4042.660156 3508.960938 4043.25 3521.449219 L 4043.25 3538.941406 C 4042.25 3561.679688 4037.460938 3584.21875 4028.871094 3606.421875 C 4019.160156 3631.679688 4006.328125 3652.058594 3990.578125 3667.578125 C 3970.191406 3687.339844 3945.609375 3703.511719 3916.800781 3716.121094 C 3888.101562 3728.648438 3860.601562 3734.898438 3834.609375 3734.898438 C 3809.371094 3734.898438 3784.339844 3730.589844 3759.429688 3721.738281 C 3734.5 3713 3714.890625 3701.460938 3700.210938 3687.21875 C 3680.789062 3667.699219 3671.078125 3640.089844 3671.078125 3604.378906 C 3671.078125 3576.121094 3678.089844 3547.96875 3691.898438 3519.699219 C 3705.710938 3491.441406 3724.46875 3465.878906 3748.210938 3442.910156 C 3771.828125 3419.941406 3797.929688 3401.910156 3826.519531 3388.539062 C 3855 3375.28125 3883.789062 3368.691406 3912.921875 3368.691406 Z M 3502.808594 3634.921875 L 3493 3642.25 C 3492.238281 3643 3491.171875 3643.859375 3489.550781 3645.148438 C 3487.921875 3646.449219 3485.988281 3648.058594 3483.609375 3649.898438 C 3441.539062 3682.699219 3408.640625 3705.78125 3384.800781 3719.160156 C 3360.738281 3732.421875 3340.039062 3739.210938 3322.238281 3739.210938 C 3302.609375 3739.210938 3286.761719 3731.988281 3274.78125 3717.75 C 3262.699219 3703.410156 3256.769531 3684.199219 3256.769531 3660.148438 C 3256.769531 3630.269531 3265.191406 3599.320312 3282.121094 3567.378906 C 3298.949219 3535.460938 3321.269531 3506.121094 3348.890625 3479.359375 C 3376.609375 3452.609375 3406.921875 3431.261719 3440.039062 3415.070312 C 3472.929688 3398.890625 3504.96875 3390.808594 3535.820312 3390.808594 C 3566.128906 3390.808594 3589.320312 3395.980469 3605.171875 3406.449219 C 3621.128906 3416.910156 3629.011719 3432.550781 3629.011719 3453.480469 C 3629.011719 3470.949219 3621.988281 3492.628906 3608.191406 3518.410156 C 3618.109375 3519.160156 3625.460938 3522.289062 3630.210938 3527.691406 C 3634.839844 3533.191406 3637.210938 3541.609375 3637.210938 3553.261719 C 3637.210938 3572.128906 3633.320312 3598.660156 3625.558594 3632.429688 C 3617.898438 3666.289062 3608.308594 3697.570312 3597.199219 3726.160156 C 3583.5 3762.511719 3564.078125 3793.898438 3538.730469 3820.648438 C 3519.53125 3840.820312 3495.691406 3858.078125 3467.21875 3872.640625 C 3438.839844 3887.109375 3414.359375 3894.328125 3393.96875 3894.328125 C 3376.929688 3894.328125 3361.71875 3887.539062 3348.351562 3873.941406 C 3335.078125 3860.238281 3328.28125 3844.921875 3328.28125 3827.878906 C 3328.28125 3816.441406 3331.191406 3804.578125 3337.019531 3792.289062 C 3342.839844 3780.089844 3350.5 3769.511719 3359.671875 3760.800781 C 3378.660156 3741.480469 3406.601562 3723.359375 3443.371094 3706.109375 C 3450.171875 3702.75 3455.460938 3701.019531 3459.019531 3701.019531 C 3460.53125 3701.019531 3461.828125 3701.679688 3463.011719 3702.871094 C 3464.300781 3703.949219 3464.839844 3705.351562 3464.839844 3706.859375 C 3464.839844 3708.578125 3463.328125 3711.820312 3460.53125 3716.671875 C 3453.191406 3729.078125 3446.71875 3744.929688 3441.109375 3764.128906 C 3435.488281 3783.441406 3432.800781 3800.160156 3432.800781 3814.289062 C 3432.800781 3830.789062 3435.390625 3838.988281 3440.460938 3838.988281 C 3443.058594 3838.988281 3446.398438 3835.96875 3450.390625 3830.039062 C 3454.378906 3824.109375 3457.929688 3817.308594 3461.171875 3809.871094 C 3481.78125 3757.441406 3495.25 3708.898438 3501.300781 3664.351562 C 3501.828125 3657.78125 3502.269531 3647.96875 3502.808594 3634.800781 Z M 3521.46875 3557.03125 L 3521.46875 3558.539062 L 3519.96875 3557.03125 C 3518.558594 3557.570312 3516.609375 3557.769531 3514.25 3557.769531 C 3509.5 3558.320312 3503.78125 3558.539062 3496.769531 3558.539062 C 3484.46875 3558.539062 3478.21875 3556.160156 3478.21875 3551.53125 C 3478.21875 3549.148438 3479.828125 3546.128906 3482.96875 3542.800781 C 3492.339844 3532.328125 3500.21875 3518.621094 3507.011719 3501.578125 C 3513.710938 3484.660156 3517.480469 3469.21875 3518.238281 3455.300781 C 3518.238281 3451.96875 3518.449219 3448.949219 3518.988281 3446.25 C 3519.199219 3445.269531 3519.429688 3444.410156 3519.53125 3443.769531 C 3519.640625 3443.019531 3519.738281 3442.359375 3519.738281 3441.941406 C 3519.738281 3438.589844 3517.378906 3436.859375 3512.730469 3436.859375 C 3503.238281 3436.859375 3488.570312 3447.109375 3468.941406 3467.5 C 3456.539062 3480.660156 3444.78125 3496.070312 3433.878906 3514.101562 C 3422.988281 3532 3414.359375 3550.019531 3408.320312 3567.921875 C 3402.171875 3585.929688 3399.269531 3602.109375 3399.269531 3616.460938 C 3399.269531 3630.488281 3402.710938 3637.601562 3409.828125 3637.601562 C 3416.628906 3637.601562 3433.660156 3626.171875 3461.171875 3603.300781 C 3473.480469 3592.730469 3493.75 3577.199219 3521.578125 3557.03125 Z M 3098.53125 3368.269531 C 3134.660156 3368.269531 3152.890625 3372.460938 3152.890625 3380.988281 C 3152.890625 3390.691406 3144.691406 3395.871094 3128.410156 3396.628906 C 3108.769531 3397.929688 3090.320312 3403.421875 3073.289062 3413.449219 C 3056.25 3423.378906 3041.238281 3437.078125 3027.871094 3454.339844 C 3014.609375 3471.609375 3004.25 3491.011719 2996.808594 3512.800781 C 2989.46875 3534.480469 2985.691406 3557.351562 2985.691406 3581.398438 C 2985.691406 3607.949219 2991.949219 3629.300781 3004.359375 3645.480469 C 3016.769531 3661.660156 3032.941406 3669.738281 3052.898438 3669.738281 C 3071.460938 3669.738281 3087.628906 3660.25 3101.550781 3641.269531 C 3115.359375 3622.289062 3122.261719 3600.058594 3122.261719 3574.710938 C 3122.261719 3553.898438 3117.949219 3534.601562 3109.308594 3516.371094 C 3100.691406 3498.230469 3088.160156 3482.929688 3071.660156 3470.511719 C 3064.550781 3464.910156 3061.101562 3460.910156 3061.101562 3458.441406 C 3061.101562 3455.089844 3066.058594 3449.699219 3075.980469 3442.789062 C 3087.210938 3435.25 3099.601562 3428.878906 3113.519531 3423.808594 C 3127.320312 3418.75 3138.96875 3416.148438 3148.460938 3416.148438 C 3159.359375 3416.148438 3169.710938 3419.070312 3179.53125 3424.789062 C 3189.351562 3430.511719 3198.089844 3438.710938 3205.640625 3449.269531 C 3213.089844 3459.839844 3218.800781 3472.03125 3222.898438 3485.828125 C 3226.890625 3499.53125 3228.828125 3514.210938 3228.828125 3529.851562 C 3228.828125 3555.621094 3223.980469 3581.179688 3214.269531 3606.320312 C 3204.558594 3631.558594 3191.71875 3651.949219 3175.96875 3667.488281 C 3155.578125 3687.21875 3131 3703.410156 3102.199219 3716.019531 C 3073.5 3728.53125 3046 3734.78125 3019.988281 3734.78125 C 2994.761719 3734.78125 2969.730469 3730.46875 2944.820312 3721.640625 C 2919.898438 3712.898438 2900.269531 3701.351562 2885.601562 3687.121094 C 2866.179688 3667.578125 2856.480469 3639.980469 2856.480469 3604.269531 C 2856.480469 3576 2863.488281 3547.859375 2877.289062 3519.589844 C 2891.089844 3491.328125 2909.859375 3465.769531 2933.589844 3442.789062 C 2957.21875 3419.820312 2983.328125 3401.808594 3011.910156 3388.421875 C 3040.378906 3375.160156 3069.191406 3368.578125 3098.308594 3368.578125 Z M 2776.339844 3421.761719 L 2764.460938 3450.988281 C 2748.820312 3488.429688 2734.160156 3525.738281 2720.660156 3562.859375 C 2714.089844 3580.871094 2704.28125 3612.261719 2691.011719 3657.019531 C 2711.179688 3655.300781 2738.261719 3651.078125 2772.230469 3644.179688 C 2794.128906 3639.871094 2807.28125 3637.601562 2812.039062 3637.601562 C 2820.441406 3637.601562 2824.75 3640.949219 2824.75 3647.851562 C 2824.75 3655.941406 2820.019531 3667.160156 2810.738281 3681.71875 C 2801.359375 3696.171875 2791 3708.578125 2779.238281 3719.160156 C 2771.160156 3726.589844 2759.398438 3731.878906 2743.53125 3734.78125 C 2727.789062 3737.699219 2703.089844 3739.109375 2669.550781 3739.109375 C 2638.371094 3739.109375 2614.109375 3738.140625 2597.171875 3736.191406 C 2596.949219 3736.191406 2592.859375 3734.898438 2585.078125 3732.421875 C 2571.269531 3726.589844 2564.261719 3714.511719 2564.261719 3695.960938 C 2564.261719 3682.699219 2568.148438 3658.210938 2575.699219 3622.71875 C 2583.359375 3587.21875 2594.46875 3543.109375 2609.019531 3490.378906 C 2642.140625 3372.898438 2666.949219 3300.101562 2683.78125 3272.480469 C 2688.949219 3262.878906 2695.75 3255.539062 2703.839844 3250.371094 C 2711.941406 3245.179688 2723.050781 3241.191406 2736.960938 3238.171875 C 2750.539062 3235.371094 2766.070312 3233.859375 2783.671875 3233.859375 C 2800.171875 3233.859375 2811.820312 3236.019531 2818.5 3240.21875 C 2825.191406 3244.421875 2828.429688 3251.761719 2828.429688 3262.230469 C 2828.429688 3272.148438 2824.121094 3290.808594 2815.378906 3318.210938 C 2806.640625 3345.398438 2793.589844 3380.011719 2776.339844 3421.648438 Z M 2182.738281 3382.488281 L 2184.25 3378.179688 C 2200.328125 3332.878906 2214.128906 3301.160156 2225.769531 3282.71875 C 2231.28125 3273.988281 2239.050781 3266.21875 2249.078125 3259.421875 C 2267.75 3247.441406 2285.320312 3241.519531 2301.828125 3241.519531 C 2311.53125 3241.519531 2318.871094 3243.679688 2323.929688 3247.988281 C 2329.011719 3252.300781 2331.589844 3258.671875 2331.589844 3266.871094 C 2331.589844 3272.480469 2328.039062 3283.898438 2320.710938 3301.269531 C 2308.410156 3330.070312 2299.238281 3357.25 2293.199219 3382.488281 C 2297.289062 3383.039062 2301.289062 3383.800781 2305.160156 3384.761719 C 2319.730469 3386.921875 2329.328125 3389.398438 2333.859375 3392.101562 C 2338.5 3394.910156 2340.660156 3399.980469 2340.660156 3407.089844 C 2340.660156 3419.820312 2337.421875 3431.578125 2330.839844 3442.578125 C 2324.371094 3453.378906 2315.851562 3461.339844 2305.058594 3466.308594 C 2297.078125 3469.878906 2284.03125 3472.460938 2266.121094 3473.53125 C 2263 3483.128906 2259.539062 3496.070312 2255.769531 3512.589844 C 2253.5 3527.148438 2251.128906 3547.320312 2248.53125 3572.980469 C 2247.03125 3582.488281 2246.28125 3591.328125 2246.28125 3599.628906 C 2246.28125 3637.941406 2264.828125 3657.128906 2301.941406 3657.128906 L 2305.28125 3657.128906 C 2309.589844 3657.128906 2311.75 3657.878906 2311.75 3659.398438 C 2311.75 3663.269531 2307.660156 3669.738281 2299.449219 3678.921875 C 2291.148438 3688.078125 2282.078125 3696.28125 2272.058594 3703.300781 C 2261.378906 3710.628906 2249.730469 3716.339844 2237.109375 3720.660156 C 2224.378906 3724.96875 2212.941406 3727.238281 2202.800781 3727.238281 C 2177.238281 3727.238281 2156.421875 3718.71875 2140.460938 3701.351562 C 2124.5 3684.199219 2116.621094 3661.441406 2116.621094 3633.070312 C 2116.621094 3620.878906 2118.78125 3604.921875 2122.988281 3585.289062 C 2127.179688 3565.648438 2133.871094 3539.230469 2142.828125 3506.339844 C 2144.339844 3500.5 2145.851562 3494.359375 2147.570312 3487.890625 C 2149.300781 3481.410156 2150.269531 3477.640625 2150.589844 3476.460938 C 2140.78125 3476.230469 2133.769531 3474.070312 2129.558594 3470.199219 C 2125.460938 3466.308594 2123.308594 3459.949219 2123.308594 3451.320312 C 2123.308594 3436 2129.238281 3421.441406 2141.101562 3407.949219 C 2152.859375 3394.371094 2166.671875 3385.839844 2182.519531 3382.488281 Z M 2024.179688 3371.28125 C 2001.421875 3370.53125 1989.980469 3356.828125 1989.980469 3330.070312 C 1989.980469 3316.800781 1993.328125 3301.269531 1999.910156 3283.578125 C 2006.601562 3266.011719 2014.25 3252.949219 2022.671875 3244.539062 C 2026.980469 3239.789062 2031.511719 3236.550781 2035.929688 3234.609375 C 2040.460938 3232.78125 2046.179688 3231.699219 2053.191406 3231.699219 C 2065.28125 3231.699219 2074.21875 3234.730469 2079.828125 3240.648438 C 2085.550781 3246.578125 2088.359375 3256.398438 2088.359375 3270.210938 C 2088.359375 3287.46875 2085.339844 3303.859375 2079.398438 3319.289062 C 2073.578125 3334.710938 2065.601562 3347.128906 2055.671875 3356.71875 C 2045.738281 3366.320312 2035.5 3371.171875 2025.25 3371.171875 L 2024.179688 3371.171875 Z M 1980.378906 3738.351562 C 1969.488281 3737.601562 1959.460938 3732.621094 1950.5 3723.46875 C 1941.550781 3713.761719 1935.191406 3703.179688 1931.300781 3691.859375 C 1927.53125 3680.53125 1925.699219 3665.96875 1925.699219 3647.96875 C 1925.699219 3607.949219 1933.140625 3562.640625 1948.019531 3512.148438 C 1962.910156 3461.78125 1979.839844 3425.210938 1998.71875 3402.570312 C 2006.171875 3393.070312 2016.628906 3388.429688 2029.890625 3388.429688 C 2043.921875 3388.429688 2055.238281 3394.910156 2063.871094 3407.730469 C 2072.390625 3420.679688 2076.820312 3437.398438 2076.820312 3458.320312 C 2076.820312 3489.179688 2072.289062 3525.320312 2063.550781 3566.730469 C 2054.699219 3608.269531 2042.410156 3651.300781 2026.339844 3696.070312 C 2020.078125 3713.96875 2012.320312 3726.160156 2003.03125 3732.53125 C 1996.78125 3736.410156 1989.328125 3738.351562 1980.921875 3738.351562 L 1980.171875 3738.351562 Z M 1755.808594 3620.558594 L 1749.550781 3625.640625 C 1748.25 3626.378906 1740.160156 3632.648438 1725.171875 3644.289062 C 1696.050781 3667.050781 1672.101562 3685.070312 1653.21875 3698.320312 C 1634.238281 3711.488281 1618.488281 3721.199219 1605.871094 3727.449219 C 1593.351562 3733.710938 1583.109375 3736.730469 1575.238281 3736.730469 C 1562.179688 3736.730469 1551.71875 3731.339844 1543.738281 3720.550781 C 1535.871094 3709.761719 1531.878906 3695.640625 1531.878906 3678.371094 C 1531.878906 3649.261719 1536.191406 3615.390625 1545.039062 3576.550781 C 1553.769531 3537.820312 1565.53125 3499.75 1580.300781 3462 C 1596.589844 3420.25 1616.550781 3394.691406 1639.960938 3385.519531 C 1648.261719 3381.949219 1657.96875 3380.011719 1669.179688 3380.011719 C 1684.5 3380.011719 1696.910156 3384.761719 1706.398438 3394.148438 C 1715.898438 3403.75 1720.53125 3416.160156 1720.53125 3431.691406 C 1720.640625 3442.359375 1718.800781 3453.679688 1715.03125 3465.558594 C 1711.261719 3477.53125 1705.429688 3491.671875 1697.230469 3508.050781 L 1692.921875 3518.621094 C 1672 3562.859375 1661.640625 3589.710938 1661.640625 3599.199219 C 1661.640625 3604.808594 1663.46875 3607.609375 1667.460938 3607.609375 C 1671.128906 3607.609375 1675.769531 3605.03125 1681.589844 3599.949219 C 1687.421875 3594.890625 1696.371094 3585.5 1708.550781 3572.011719 C 1716.011719 3562.859375 1726.679688 3551.199219 1740.488281 3537.5 L 1754.078125 3523.910156 L 1765.730469 3511.621094 C 1790.21875 3487.238281 1810.28125 3469.660156 1825.808594 3458.859375 C 1841.339844 3448.078125 1854.28125 3442.691406 1864.421875 3442.691406 C 1883.851562 3442.691406 1893.550781 3459.621094 1893.550781 3493.28125 C 1893.550781 3500.398438 1892.691406 3512.800781 1891.070312 3530.820312 C 1888.261719 3565.761719 1886.859375 3595.320312 1886.859375 3619.589844 C 1887.078125 3624.449219 1887.191406 3628.96875 1887.398438 3632.851562 C 1887.511719 3636.949219 1887.621094 3642.03125 1887.621094 3648.390625 C 1889.238281 3664.679688 1890.320312 3677.078125 1891.070312 3685.820312 C 1892.691406 3699.730469 1893.550781 3706.53125 1893.550781 3706.53125 C 1893.550781 3713.871094 1886.96875 3720.339844 1873.921875 3725.949219 C 1860.761719 3731.558594 1845.539062 3734.25 1828.398438 3734.25 C 1812.648438 3734.25 1799.058594 3731.128906 1787.738281 3724.96875 C 1776.398438 3718.820312 1767.890625 3709.660156 1761.949219 3697.46875 C 1756.121094 3685.390625 1753.210938 3670.601562 1753.210938 3653.03125 C 1753.210938 3650.761719 1753.429688 3647.101562 1753.96875 3641.589844 C 1754.511719 3636.089844 1754.941406 3629.078125 1755.480469 3620.238281 Z M 1412.46875 3623.578125 L 1410.949219 3630.910156 C 1410.949219 3635.011719 1410.410156 3640.949219 1409.449219 3648.71875 C 1408.480469 3660.691406 1407.070312 3670.398438 1405.449219 3677.941406 C 1403.730469 3685.390625 1401.238281 3691.640625 1397.800781 3696.609375 C 1394.449219 3701.570312 1389.820312 3706.96875 1383.988281 3712.570312 C 1366.300781 3728.859375 1348.390625 3736.949219 1330.488281 3736.949219 C 1315.808594 3736.949219 1305.140625 3731.558594 1298.128906 3720.878906 C 1291.328125 3710.199219 1287.769531 3693.050781 1287.769531 3669.109375 C 1287.769531 3650.21875 1289.929688 3626.808594 1294.140625 3598.988281 C 1298.339844 3571.269531 1303.628906 3546.238281 1309.671875 3524.128906 L 1312.46875 3514.640625 C 1312.46875 3513.230469 1313.230469 3510.109375 1314.730469 3505.578125 C 1323.699219 3472.460938 1332 3448.078125 1339.441406 3432.230469 C 1346.988281 3416.25 1356.050781 3403.53125 1366.839844 3393.828125 C 1376.328125 3386.261719 1387.011719 3382.488281 1398.871094 3382.488281 C 1416.128906 3382.488281 1426.589844 3392.960938 1430.148438 3413.78125 C 1433.5 3410.980469 1436.839844 3407.421875 1439.96875 3403.53125 C 1446.980469 3395.121094 1452.378906 3389.398438 1456.261719 3386.601562 C 1460.25 3383.679688 1464.671875 3382.390625 1469.851562 3382.390625 C 1490.558594 3382.390625 1501.019531 3402.988281 1501.019531 3444.308594 C 1501.019531 3466.851562 1498.550781 3488.648438 1493.691406 3509.78125 C 1488.828125 3530.921875 1482.789062 3548.179688 1475.460938 3561.570312 C 1468.019531 3574.828125 1460.679688 3581.621094 1453.449219 3581.621094 C 1445.359375 3581.621094 1441.378906 3566.410156 1441.378906 3536.089844 C 1441.378906 3520.019531 1440.511719 3507.511719 1438.679688 3498.460938 C 1436.949219 3489.398438 1434.039062 3482.269531 1430.261719 3477.210938 C 1422.929688 3490.808594 1418.179688 3521.871094 1416.019531 3570.519531 C 1414.300781 3598.660156 1413.121094 3616.351562 1412.46875 3623.578125 Z M 1061.03125 3375.921875 L 1069.339844 3354.890625 C 1042.160156 3354.128906 1023.070312 3351.441406 1012.28125 3346.589844 C 1001.488281 3341.71875 995.992188 3333.53125 995.992188 3321.660156 C 995.992188 3311.960938 999.765625 3302.46875 1007.320312 3293.191406 C 1015.738281 3281.421875 1024.898438 3270.53125 1034.609375 3260.820312 C 1044.308594 3251.011719 1053.378906 3244 1061.570312 3239.898438 C 1068.699219 3236.878906 1078.410156 3235.371094 1090.699219 3235.371094 C 1120.789062 3235.371094 1154.988281 3237.320312 1193.058594 3241.191406 C 1201.800781 3241.730469 1209.128906 3242.058594 1214.960938 3242.378906 C 1220.789062 3242.589844 1227.050781 3243.019531 1233.839844 3243.460938 C 1249.910156 3243.460938 1260.050781 3243.679688 1264.46875 3244.320312 C 1268.789062 3244.960938 1274.078125 3246.46875 1280.109375 3248.96875 C 1284.210938 3250.371094 1287.660156 3252.53125 1290.679688 3255.441406 C 1296.71875 3261.789062 1299.75 3271.71875 1299.75 3285.308594 C 1299.75 3310.550781 1291.109375 3326.628906 1273.851562 3333.640625 C 1263.820312 3337.949219 1254.550781 3340.871094 1246.460938 3342.050781 C 1238.261719 3343.449219 1223.480469 3345.058594 1202.230469 3347.011719 L 1162.96875 3476.988281 C 1181.519531 3476.988281 1196.511719 3476.460938 1208.058594 3475.480469 C 1215.28125 3474.941406 1226.28125 3474.730469 1241.28125 3474.730469 C 1258.75 3474.730469 1271.269531 3476.550781 1278.488281 3480.429688 C 1285.71875 3484.21875 1289.289062 3490.898438 1289.289062 3500.289062 C 1289.289062 3507.628906 1285.828125 3518.308594 1278.710938 3532.109375 C 1271.699219 3546.03125 1264.148438 3557.238281 1255.839844 3565.441406 C 1251.960938 3569.429688 1246.460938 3572.011719 1239.550781 3573.421875 C 1232.429688 3574.828125 1220.570312 3575.371094 1203.640625 3575.371094 L 1189.5 3575.371094 C 1173.320312 3575.371094 1154.78125 3576.121094 1133.949219 3577.628906 C 1123.058594 3614.421875 1112.921875 3642.671875 1103.75 3662.089844 C 1094.578125 3681.609375 1083.261719 3698.109375 1069.769531 3711.710938 C 1060.601562 3721.199219 1050.789062 3728.320312 1040.429688 3733.488281 C 1029.96875 3738.570312 1020.371094 3741.050781 1011.308594 3741.050781 C 996.535156 3741.050781 983.691406 3736.851562 972.910156 3728.320312 C 962.121094 3719.910156 956.621094 3709.980469 956.621094 3698.859375 C 956.621094 3685.28125 968.164062 3643 991.140625 3571.910156 C 1014.21875 3500.820312 1037.519531 3435.351562 1061.148438 3375.601562 L 1061.03125 3375.921875 "/>
<path fill-rule="nonzero" fill="rgb(0%, 0%, 0%)" fill-opacity="1" d="M 3179.859375 4019.878906 C 3182.761719 3987.308594 3206.5 3968.648438 3234 3968.648438 C 3266.050781 3968.648438 3287.609375 3986.96875 3287.828125 4019.878906 Z M 3234 4093.671875 C 3255.261719 4093.671875 3278.449219 4085.039062 3291.398438 4068.109375 L 3282.011719 4060.550781 C 3272.089844 4073.710938 3251.589844 4080.71875 3234.109375 4080.71875 C 3206.609375 4080.71875 3182.671875 4062.710938 3179.96875 4031.429688 L 3299.808594 4031.429688 C 3304.871094 3979.429688 3271.550781 3956.570312 3234.109375 3956.570312 C 3196.679688 3956.570312 3166.480469 3985.359375 3166.480469 4025.269531 C 3166.480469 4067.570312 3196.679688 4093.671875 3234.109375 4093.671875 Z M 3006.078125 3958.71875 L 3006.078125 4091.828125 L 3019.238281 4091.828125 L 3019.238281 4017.730469 C 3019.238281 3990.21875 3038.339844 3969.519531 3065.839844 3969.179688 C 3094.628906 3968.980469 3113.300781 3985.039062 3113.300781 4015.238281 L 3113.300781 4091.71875 L 3126.460938 4091.71875 L 3126.460938 4014.910156 C 3126.460938 3978.019531 3101.980469 3956.238281 3066.378906 3956.238281 C 3047.828125 3956.570312 3029.160156 3964.011719 3019.039062 3982.339844 L 3019.039062 3958.621094 L 3006.078125 3958.621094 Z M 2938.449219 3915.351562 C 2938.449219 3929.378906 2959.699219 3929.378906 2959.699219 3915.351562 C 2959.699219 3901.339844 2938.449219 3901.339844 2938.449219 3915.351562 Z M 2955.390625 3958.179688 L 2955.390625 4091.828125 L 2942.230469 4091.828125 L 2942.230469 3958.179688 Z M 2879.121094 3902.949219 L 2879.121094 4091.828125 L 2892.289062 4091.828125 L 2892.289062 3902.949219 Z M 2776.21875 3969.519531 C 2803.730469 3969.519531 2826.058594 3987.519531 2826.058594 4021.28125 C 2826.058594 4048.789062 2803.730469 4072.519531 2776.21875 4072.519531 C 2745.800781 4072.519531 2726.929688 4048.789062 2726.929688 4021.28125 C 2726.929688 3986.550781 2749.039062 3969.519531 2776.21875 3969.519531 Z M 2813.96875 3968.429688 C 2803.730469 3961.101562 2789.699219 3956.351562 2776.21875 3956.351562 C 2741.710938 3956.351562 2713.769531 3979.761719 2713.769531 4021.28125 C 2713.769531 4056.878906 2737.71875 4085.679688 2776.21875 4085.679688 C 2801.03125 4085.679688 2826.601562 4097 2826.601562 4125.589844 C 2826.601562 4153.851562 2802.871094 4165.71875 2776.21875 4165.71875 C 2749.570312 4165.71875 2726.378906 4152.769531 2726.378906 4125.589844 L 2713.230469 4125.589844 C 2713.230469 4159.238281 2740.949219 4178.660156 2776.21875 4178.660156 C 2811.488281 4178.660156 2839.539062 4161.410156 2839.539062 4125.589844 C 2839.539062 4102.71875 2826.601562 4086.21875 2803.191406 4077.921875 C 2825.289062 4067.988281 2838.988281 4044.480469 2838.988281 4021.390625 C 2838.988281 3999.820312 2831.988281 3986.339844 2822.601562 3976.089844 L 2835.550781 3960.980469 L 2826.910156 3953.449219 L 2813.96875 3968.539062 Z M 2603.53125 3969.71875 C 2677.628906 3969.71875 2677.628906 4080.941406 2603.53125 4080.941406 C 2573.320312 4080.941406 2549.160156 4058.601562 2549.160156 4025.160156 C 2549.160156 3991.738281 2573.429688 3969.609375 2603.53125 3969.609375 Z M 2657.988281 3958.71875 L 2657.988281 3987.839844 C 2646.988281 3967.128906 2625.101562 3957.101562 2603.53125 3957.101562 C 2566.308594 3957.101562 2535.890625 3984.609375 2535.890625 4025.269531 C 2535.890625 4065.949219 2566.308594 4093.988281 2603.53125 4093.988281 C 2625.101562 4093.988281 2645.058594 4084.269531 2657.988281 4063.570312 L 2657.988281 4091.828125 L 2671.160156 4091.828125 C 2671.160156 4047.390625 2671.160156 4003.171875 2671.160156 3958.71875 Z M 2456.179688 4091.828125 L 2470.75 4091.828125 L 2470.75 3916.441406 L 2538.921875 3916.441406 L 2538.921875 3903.488281 L 2388.011719 3903.488281 L 2388.011719 3916.441406 L 2456.179688 3916.441406 Z M 2207.550781 3958.71875 L 2207.550781 4091.828125 L 2220.710938 4091.828125 L 2220.710938 4014.28125 C 2220.710938 3990 2239.800781 3970.039062 2264.609375 3969.828125 C 2272.378906 3969.828125 2280.25 3971.78125 2287.269531 3975.988281 L 2293.199219 3965.191406 C 2284.25 3959.800781 2274.640625 3957.101562 2264.609375 3957.429688 C 2247.671875 3957.429688 2228.789062 3964.429688 2220.390625 3982.449219 L 2219.851562 3958.71875 L 2207.441406 3958.71875 Z M 2159.878906 4091.828125 L 2159.878906 3958.511719 L 2146.710938 3958.511719 L 2146.710938 4032.601562 C 2146.710938 4060.109375 2127.621094 4080.820312 2100.109375 4081.039062 C 2071.320312 4081.371094 2052.769531 4065.191406 2052.769531 4034.988281 L 2052.769531 3958.511719 L 2039.601562 3958.511719 L 2039.601562 4035.300781 C 2039.601562 4072.199219 2064.089844 4093.988281 2099.679688 4093.988281 C 2118.238281 4093.671875 2136.890625 4086.109375 2147.148438 4067.890625 L 2147.148438 4091.828125 L 2160.089844 4091.828125 Z M 1928.710938 4080.820312 C 1898.511719 4080.820312 1874.03125 4060.109375 1874.03125 4025.589844 C 1874.03125 3991.078125 1898.511719 3968.738281 1928.710938 3968.738281 C 1958.910156 3968.738281 1983.398438 3991.078125 1983.398438 4025.589844 C 1983.398438 4060.109375 1958.910156 4080.820312 1928.710938 4080.820312 Z M 1928.710938 4093.761719 C 1966.148438 4093.761719 1996.351562 4067.890625 1996.351562 4025.589844 C 1996.351562 3983.320312 1966.148438 3956.351562 1928.710938 3956.351562 C 1891.28125 3956.351562 1861.078125 3983.320312 1861.078125 4025.589844 C 1861.078125 4067.890625 1891.28125 4093.761719 1928.710938 4093.761719 Z M 1772.960938 4091.941406 L 1787.511719 4091.941406 L 1787.511719 4016.429688 L 1861.300781 3903.390625 L 1861.300781 3903.058594 L 1844.359375 3903.058594 L 1780.289062 4002.300781 L 1716.441406 3903.058594 L 1699.488281 3903.058594 L 1699.488281 3903.390625 L 1773.058594 4016.429688 L 1773.058594 4091.941406 L 1772.960938 4091.941406 "/>
</svg>
